<?xml version="1.0" encoding="utf-8"?>
<!-- Generator: Adobe Illustrator 24.1.2, SVG Export Plug-In . SVG Version: 6.00 Build 0)  -->
<svg version="1.1" id="Layer_1" xmlns="http://www.w3.org/2000/svg" xmlns:xlink="http://www.w3.org/1999/xlink" x="0px" y="0px"
	 viewBox="0 0 531 581" style="enable-background:new 0 0 531 581;" xml:space="preserve">
<style type="text/css">
	.st0{fill:#FFFFFF;stroke:#000000;}
	.st1{font-family:'Roboto-Regular';}
	.st2{font-size:12px;}
	.st3{font-family:'ArialMT';}
	.st4{fill:none;stroke:#000000;stroke-miterlimit:10;}
	.st5{stroke:#000000;stroke-miterlimit:10;}
	.st6{fill:none;}
	.st7{enable-background:new    ;}
</style>
<g>
	<ellipse pointer-events="all" class="st0" cx="175.5" cy="120.5" rx="60" ry="60"/>
	<g transform="translate(-0.5 -0.5)">
		<text transform="matrix(1 0 0 1 162.1143 124.5)" class="st1 st2">reset</text>
	</g>
	<ellipse pointer-events="all" class="st0" cx="450.5" cy="120.5" rx="60" ry="60"/>
	<g transform="translate(-0.5 -0.5)">
		<text transform="matrix(1 0 0 1 438.8311 124.5)" class="st3 st2">start</text>
	</g>
	<path pointer-events="stroke" class="st4" d="M235.5,120.5c16.7-6.7,43.3-10,80-10s59.8,2.4,69.3,7.2"/>
	<path pointer-events="all" class="st5" d="M389.5,120h-7.8l3.1-2.3v-3.9L389.5,120z"/>
	<path pointer-events="stroke" class="st4" d="M133.1,78.1c5-38.4,19.1-57.6,42.4-57.6s37.2,17.1,41.6,51.3"/>
	<path pointer-events="all" class="st5" d="M217.8,77l-4.4-6.5l3.7,1.3l3.3-2.2L217.8,77z"/>
	<rect x="140.5" y="0.5" pointer-events="all" class="st6" width="70" height="20"/>
	<g transform="translate(-0.5 -0.5)">
		<text transform="matrix(1 0 0 1 150.0293 14.5)" class="st3 st2">i_start=&apos;0&apos;</text>
	</g>
	<rect x="280.5" y="70.5" pointer-events="all" class="st6" width="70" height="40"/>
	<g transform="translate(-0.5 -0.5)">
		<text transform="matrix(1 0 0 1 290.0293 94.5)" class="st3 st2">i_start=&apos;1&apos;</text>
	</g>
	<ellipse pointer-events="all" class="st0" cx="450.5" cy="320.5" rx="60" ry="60"/>
	<g transform="translate(-0.5 -0.5)">
		<text transform="matrix(1 0 0 1 422.1465 324.5)" class="st3 st2">store_data</text>
	</g>
	<path pointer-events="stroke" class="st4" d="M450.5,180.5c6.7,6.7,10,18.3,10,35s-2.4,29.8-7.1,39.3"/>
	<path pointer-events="all" class="st5" d="M451,259.5v-7.8l2.4,3.1h3.9L451,259.5z"/>
	<rect x="460.5" y="210.5" pointer-events="all" class="st6" width="60" height="20"/>
	<g transform="translate(-0.5 -0.5)">
		<text transform="matrix(1 0 0 1 464.6865 224.5)" class="st3 st2">o_en = &apos;1&apos;</text>
	</g>
	<rect x="330.5" y="195.5" pointer-events="all" class="st6" width="130" height="50"/>
	<ellipse pointer-events="all" class="st0" cx="450.5" cy="520.5" rx="60" ry="60"/>
	<g transform="translate(-0.5 -0.5)">
		<text transform="matrix(1 0 0 1 422.8115 524.5)" class="st3 st2">save_data</text>
	</g>
	<ellipse pointer-events="all" class="st0" cx="175.5" cy="520.5" rx="60" ry="60"/>
	<g transform="translate(-0.5 -0.5)">
		<text transform="matrix(1 0 0 1 137.1416 524.5)" class="st3 st2">compare_data</text>
	</g>
	<ellipse pointer-events="all" class="st0" cx="175.5" cy="320.5" rx="60" ry="60"/>
	<g transform="translate(-0.5 -0.5)">
		<text transform="matrix(1 0 0 1 141.8232 324.5)" class="st3 st2">wait_confirm</text>
	</g>
	<path pointer-events="stroke" class="st4" d="M450.5,380.5c6.7,6.7,10,18.3,10,35s-2.4,29.8-7.1,39.3"/>
	<path pointer-events="all" class="st5" d="M451,459.5v-7.8l2.4,3.1h3.9L451,459.5z"/>
	<path pointer-events="stroke" class="st4" d="M175.5,460.5c3.3-13.3,5-28.3,5-45s-0.7-26.4-2.1-29.3"/>
	<path pointer-events="all" class="st5" d="M176,381.5l6.3,4.7h-3.9l-2.4,3.1V381.5z"/>
	<path pointer-events="stroke" class="st4" d="M175.5,260.5c3.3-13.3,5-28.3,5-45s-0.7-26.4-2.1-29.3"/>
	<path pointer-events="all" class="st5" d="M176,181.5l6.3,4.7h-3.9l-2.4,3.1V181.5z"/>
	<path pointer-events="stroke" class="st4" d="M390.5,520.5c-13.3-13.3-38.3-20-75-20s-61.7,5.3-75,16"/>
	<path pointer-events="all" class="st5" d="M236.4,519.8l3.3-7.1l0.8,3.8l3.6,1.6L236.4,519.8z"/>
	<rect x="470.5" y="410.5" pointer-events="all" class="st6" width="60" height="20"/>
	<g transform="translate(-0.5 -0.5)">
		<text transform="matrix(1 0 0 1 474.6865 424.5)" class="st3 st2">o_en = &apos;1&apos;</text>
	</g>
	<rect x="320.5" y="390.5" pointer-events="all" class="st6" width="130" height="50"/>
	<rect x="285.5" y="480.5" pointer-events="all" class="st6" width="60" height="20"/>
	<g transform="translate(-0.5 -0.5)">
		<text transform="matrix(1 0 0 1 289.6865 494.5)" class="st3 st2">o_en = &apos;1&apos;</text>
	</g>
	<rect x="248.5" y="503.5" pointer-events="all" class="st6" width="130" height="20"/>
	<g transform="translate(-0.5 -0.5)">
		<text transform="matrix(1 0 0 1 253.1221 517.5)" class="st3 st2">current_data &lt;= i_data</text>
	</g>
	<path pointer-events="stroke" class="st4" d="M235.5,520.5c18.3,20,45.8,30,82.5,30s59.8-8.2,69.3-24.5"/>
	<path pointer-events="all" class="st5" d="M389.9,521.5l-0.5,7.8l-2.1-3.3l-3.9-0.3L389.9,521.5z"/>
	<rect x="235.5" y="550.5" pointer-events="all" class="st6" width="160" height="20"/>
	<g transform="translate(-0.5 -0.5)">
		<text transform="matrix(1 0 0 1 241.9473 564.5)" class="st3 st2">next_counter &lt;= counter +1</text>
	</g>
	<rect x="283.5" y="530.5" pointer-events="all" class="st6" width="60" height="20"/>
	<g transform="translate(-0.5 -0.5)">
		<text transform="matrix(1 0 0 1 287.6865 544.5)" class="st3 st2">o_en = &apos;1&apos;</text>
	</g>
	<rect x="40.5" y="390.5" pointer-events="all" class="st6" width="130" height="50"/>
	<g transform="translate(-0.5 -0.5)">
		<text transform="matrix(1 0 0 1 79.2655 421)" class="st7"><tspan x="0" y="0" class="st3 st2">o_address </tspan><tspan x="24.5" y="14.4" class="st3 st2">= </tspan><tspan x="-31.3" y="28.8" class="st3 st2"> &quot;0000000000001001&quot;</tspan></text>
	</g>
	<rect x="178.5" y="395.5" pointer-events="all" class="st6" width="80" height="50"/>
	<g transform="translate(-0.5 -0.5)">
		<text transform="matrix(1 0 0 1 187.6855 424.5)" class="st7"><tspan x="0" y="0" class="st3 st2">o_en = &apos;1&apos;</tspan><tspan x="0" y="14.4" class="st3 st2">o_we = &apos;1&apos;</tspan><tspan x="0" y="28.8" class="st3 st2">o_done = &apos;1&apos;</tspan></text>
	</g>
	<rect x="181.5" y="200.5" pointer-events="all" class="st6" width="80" height="30"/>
	<path pointer-events="stroke" class="st4" d="M133.1,362.9c-35-8.3-52.6-24.4-52.6-48.4s15.4-36.1,46.2-36.4"/>
	<path pointer-events="all" class="st5" d="M132,278.1l-7,3.6l1.7-3.5l-1.8-3.5L132,278.1z"/>
	<rect x="0.5" y="305.5" pointer-events="all" class="st6" width="80" height="30"/>
	<g transform="translate(-0.5 -0.5)">
		<text transform="matrix(1 0 0 1 14.145 324.5)" class="st7"><tspan x="0" y="0" class="st3 st2">i_start = &apos;1&apos;</tspan><tspan x="-3.7" y="14.4" class="st3 st2">o_done = &apos;1&apos;</tspan></text>
	</g>
	<g transform="translate(-0.5 -0.5)">
		<text transform="matrix(1 0 0 1 352.5017 419.9996)" class="st7"><tspan x="0" y="0" class="st3 st2">o_address </tspan><tspan x="24.5" y="14.4" class="st3 st2">= </tspan><tspan x="-31.3" y="28.8" class="st3 st2"> &quot;0000000000000000&quot;</tspan></text>
	</g>
</g>
<g transform="translate(-0.5 -0.5)">
	<text transform="matrix(1 0 0 1 352.5018 223.4998)" class="st7"><tspan x="0" y="0" class="st3 st2">o_address </tspan><tspan x="24.5" y="14.4" class="st3 st2">= </tspan><tspan x="-31.3" y="28.8" class="st3 st2"> &quot;0000000000001000&quot;</tspan></text>
</g>
<g transform="translate(-0.5 -0.5)">
	<text transform="matrix(1 0 0 1 188.3281 220.0001)" class="st7"><tspan x="0" y="0" class="st3 st2">i_start = &apos;0&apos;</tspan><tspan x="-3.7" y="14.4" class="st3 st2">o_done = &apos;0&apos;</tspan></text>
</g>
</svg>
